<?xml version="1.0" encoding="UTF-8"?><svg id="Layer_2" xmlns="http://www.w3.org/2000/svg" viewBox="0 0 181.46 152.46"><defs><style>.cls-1{fill:#9b9b9b;}</style></defs><g id="Layer_1-2"><g id="Path_83"><path class="cls-1" d="m14.46,10.11c-1-1,0-3,2-4,5-3,11-1,15,3,10,14,18,26,26,41,9,18,16,37,24,55,5,0,0,8,8,5,10-13,20-26,31-39,8-10,13-20,20-30,2-3,3-6,5-9,1-2,1-3,2-5,1-1,2-3,3-4,2-3,2-7,4-10,2-4,6-4,10-5,3,0,5,3,5,5,1,29-1,59-3,88-1,16,0,31,0,47,0,2,2,3,3,4,4,1,11,0,10-5-1-39,2-79,2-118-3-8,3-18-4-26-12,1-25-1-36,3-4,7-8,13-11,20-11,19-23,35-37,52-1,1-3,1-3,1-15-26-24-54-44-77-2-1-4-2-6-2C28.46.11,15.46-.89,3.46,3.11c-2,1-2,3-2,4,0,5,0,9,1,14,1,43-6,85,0,128,0,4,8,2,8-1,2-32,1-64,4-96,1-14,0-28,0-42h0Z"/></g><g id="Path_85"><path class="cls-1" d="m147.46,152.11c3,0,4-3,5-5,0-5,0-9-1-14,0-32,4-63,1-95-1,1-2,1-2,2-2,5-3,10-6,15-2,3-4,6-5,9-1,1-2,3-3,4-1,2-1,3-2,5-15,22-28,41-46,59-2,3-6-1-8-4-10-18-16-35-25-53-8-13-15-27-27-36,1,37-3,73,0,110,4,4,10,3,15,1,1-1,2-3,2-5-1-20,0-40,3-60,1,0,2,1,2,1,10,17,15,36,27,51,7,0,14,2,21,0,11-16,24-31,35-47,2,2,1,5,1,7-3,17-3,34-1,51,0,7,9,3,14,4h0Z"/></g></g></svg>